<svg xmlns="http://www.w3.org/2000/svg" xmlns:xlink="http://www.w3.org/1999/xlink" width="165" height="105.353" viewBox="0 0 165 105.353">
  <defs>
    <linearGradient id="linear-gradient" x1="0.5" y1="1" x2="0.5" gradientUnits="objectBoundingBox">
      <stop offset="0" stop-color="gray" stop-opacity="0.063"/>
      <stop offset="0.54" stop-color="gray" stop-opacity="0.016"/>
      <stop offset="1" stop-color="gray" stop-opacity="0.012"/>
    </linearGradient>
  </defs>
  <g id="signup_main_img" transform="translate(0 0)">
    <path id="Path_177" data-name="Path 177" d="M52.992,16.372A2.293,2.293,0,0,1,50.7,14.078h0a2.293,2.293,0,0,1,2.293-2.293h7.7a2.293,2.293,0,0,1,2.293,2.293h0A2.293,2.293,0,0,1,60.7,16.372Z" transform="translate(0 0)" fill="#f9a826"/>
    <path id="Path_178" data-name="Path 178" d="M89.556,12.243A2.293,2.293,0,0,1,87.263,9.95h0a2.293,2.293,0,0,1,2.293-2.293h7.7a2.293,2.293,0,0,1,2.3,2.293h0a2.293,2.293,0,0,1-2.293,2.293Z" transform="translate(0 0)" fill="#f9a826"/>
    <path id="Path_179" data-name="Path 179" d="M82.8,58.876a2.293,2.293,0,0,1-2.3-2.293h0a2.293,2.293,0,0,1,2.3-2.294h7.7a2.293,2.293,0,0,1,2.293,2.293h0A2.293,2.293,0,0,1,90.5,58.876Z" transform="translate(0 -3.829)" fill="#f9a826"/>
    <path id="Path_180" data-name="Path 180" d="M88.327,63.921a2.293,2.293,0,0,1-2.293-2.293h0a2.293,2.293,0,0,1,2.293-2.293h7.7a2.293,2.293,0,0,1,2.293,2.293h0a2.293,2.293,0,0,1-2.293,2.293Z" transform="translate(0 -4.185)" fill="#f9a826"/>
    <path id="Path_181" data-name="Path 181" d="M121.2,61.628a2.293,2.293,0,0,1-2.293-2.293h0a2.293,2.293,0,0,1,2.293-2.293h7.7a2.293,2.293,0,0,1,2.293,2.293h0a2.293,2.293,0,0,1-2.293,2.293Z" transform="translate(0 -4.023)" fill="#f9a826"/>
    <path id="Path_182" data-name="Path 182" d="M21.19,65.3A2.293,2.293,0,0,1,18.9,63h0a2.293,2.293,0,0,1,2.293-2.293h7.7A2.293,2.293,0,0,1,31.187,63h0a2.293,2.293,0,0,1-2.293,2.3Z" transform="translate(0 -4.282)" fill="#f9a826"/>
    <path id="Path_183" data-name="Path 183" d="M78.955,68.967a2.293,2.293,0,0,1-2.293-2.293h0a2.293,2.293,0,0,1,2.293-2.293h7.7a2.293,2.293,0,0,1,2.293,2.293h0a2.293,2.293,0,0,1-2.293,2.293Z" transform="translate(0 -4.541)" fill="#f9a826"/>
    <path id="Path_184" data-name="Path 184" d="M54,26.05,48.33,10.842l-2.039.285-1.825.216c.046-.572.127-2.624-1-3.7A2.823,2.823,0,0,0,42.5,6.385c-2.708-2.294-3.273,2.4-3.273,2.4s-.619.992-1.471,2.378l-.447-.079-.127,1.023a80.962,80.962,0,0,0-4.394,7.645,4.832,4.832,0,0,1-.339,1.462,50.539,50.539,0,0,0-2.6,4.387,7.023,7.023,0,0,1-1.7,2.3s-.164.115-.433.285a3.328,3.328,0,0,1,.155-.816,19.719,19.719,0,0,0,.976-2.156,2.33,2.33,0,0,0,.04-.558,11.257,11.257,0,0,0-.637-2.691c-.23-1.044-.107-2.2-.71-3.1A3.491,3.491,0,0,0,25.4,17.54a17.775,17.775,0,0,0-2.351-.194c-.727-.072-1.421-.372-2.148-.479a3,3,0,0,0-1.179,0c-1.23.313-1.615,1.745-2.565,2.532-.342.285-.761.483-1.07.8A2.273,2.273,0,0,0,15.5,21.91a3.376,3.376,0,0,0,.04.625c.118.744.43,1.455.619,2.188a7.034,7.034,0,0,1,.23,1.656c0,.126,0,.251-.012.372a1.244,1.244,0,0,1-.209.714,2.19,2.19,0,0,1-.707.465,5.091,5.091,0,0,1-1.782-2.335s-.042.048-.113.143V25.6a10.6,10.6,0,0,1-1.782-3.812l.538.051L13.563,5.751,10.4,5.326a6.3,6.3,0,0,0-.964-2.914c.531-.966.8-2.274-1.528-2.4C5.186-.144,5.353,1.815,5.643,2.883a6.676,6.676,0,0,0-.155,1.779L2.7,4.291,2.685,4.5H2.026L0,20.909l1.726-.08,6.326.609c.506,4.249,1.3,9.5,2.248,10.735a1.072,1.072,0,0,0,.1.119v7.518s-.113,9.718-2.036,11.28a10.811,10.811,0,0,1,3.678-.533q-.032.093-.065.206a17,17,0,0,0-.586,2.927q-.04.327-.073.683a34.063,34.063,0,0,0,.1,6.535,125.208,125.208,0,0,0,2.036,13.265l.346,4.493s-.339,7.625.565,10.131a4.148,4.148,0,0,0,1.157.693c.008.072.017.143.025.219s.02.192.031.293c-.4.17-1.162.844-1.326,3.494a6.068,6.068,0,0,1-.339,2.924c-.565.939-.226,3.655,1.469,3.969a9.793,9.793,0,0,0,3.278,0s.792,0,.226-2.611l-.1-.669a8.169,8.169,0,0,1,.325-3.091,1.4,1.4,0,0,0-.226-1.674s-.056.029-.147.067a11.44,11.44,0,0,1-.268-2.79,1.854,1.854,0,0,1,.023-.221,4.792,4.792,0,0,0,.957-.61V78.875s-.113-15.25,1.131-15.562a63.443,63.443,0,0,1,.339,8.252,23.98,23.98,0,0,0,.339,5.641l.226,11.071s.217.093.566.208l-.023.2c-.138,1.23-.359,3.088-.56,4.226a.864.864,0,0,0-.549.586c-.339,1.044-.113,3.655-.792,4.387a2.186,2.186,0,0,0-.645,1.919c-.147.541-.082,1.387,1.663,1.528a4.6,4.6,0,0,0,3.731-1.044,1.712,1.712,0,0,0,0-1.462,5.662,5.662,0,0,1,.113-2.611s.243-1.418-.155-1.6c-.034-.168-.065-.279-.065-.279a1.205,1.205,0,0,0-.357-.868,16.742,16.742,0,0,1,.455-4.448c.025-.075.049-.143.076-.221a3.222,3.222,0,0,0,.956-.311,10.186,10.186,0,0,1,.679-4.073c.792-1.674.339-8.356.339-8.356a7.292,7.292,0,0,1,.139-3.18,29.223,29.223,0,0,0,1.228-4.831l.667-4.315A16.386,16.386,0,0,0,28.392,53.1q-.142-.335-.309-.669c-.192-.387-.4-.776-.643-1.161-.037-.06-.077-.122-.116-.186l.381-.093s-3.052-6.574-1.131-9.922a4.268,4.268,0,0,0,1.237-2.1,41.914,41.914,0,0,1,.744-4.334l.06-.251.025-.136c.043-.026.085-.053.127-.082,3.257-2.2,6.066-11.375,6.066-11.375l.9-1.572.43-.837-.882,7.107,6.9,1.572,4.408-.313-.012-.876,3.36-.242ZM10.289,5.329,9.064,5.164C8.849,4.141,8.7,3.471,8.7,3.471a6.2,6.2,0,0,0,.679-.939,6.151,6.151,0,0,1,.906,2.79ZM5.714,3.136a4.63,4.63,0,0,0,.162.442l.155,1.179L5.613,4.7a7.165,7.165,0,0,1,.1-1.571Zm38.638,8.233-1.658.2a5.34,5.34,0,0,0,.354-2.617A1.262,1.262,0,0,0,43.5,7.856a5.071,5.071,0,0,1,.849,3.508ZM41.6,9.738a4.211,4.211,0,0,0,1.35-.7,5.4,5.4,0,0,1-.381,2.544l-1.547.186-.427-.075Z" transform="translate(57)" fill="url(#linear-gradient)"/>
    <path id="Path_185" data-name="Path 185" d="M110.154,28.16l-4.009,1.665-4.656-16.159,1.092-1.29,2-.309Z" transform="translate(0 0)" fill="#f9a826"/>
    <path id="Path_186" data-name="Path 186" d="M110.154,28.16l-4.009,1.665-4.656-16.159,1.092-1.29,2-.309Z" transform="translate(0 0)" fill="#fff"/>
    <path id="Path_187" data-name="Path 187" d="M102.581,12.375l-6.956.888,3.566,17.1,6.954-.538Z" transform="translate(0 0)" fill="#f9a826"/>
    <path id="Path_188" data-name="Path 188" d="M102.581,12.375l-6.956.888,3.566,17.1,6.954-.538Z" transform="translate(0 0)" fill="#fff"/>
    <path id="Path_189" data-name="Path 189" d="M100.773,12.76l-.111-.014c0-.041.461-4.078-2.085-4.587L98.6,8.05C101.254,8.582,100.782,12.719,100.773,12.76Z" transform="translate(0 0)" fill="#535461"/>
    <path id="Path_190" data-name="Path 190" d="M75.04,35.7V24.542H82.7V35.7Z" transform="translate(0 -1.843)" fill="#774e55"/>
    <path id="Path_191" data-name="Path 191" d="M75.04,35.7V24.542H82.7V35.7Z" transform="translate(0 -1.843)"/>
    <path id="Path_192" data-name="Path 192" d="M102.858,31.007l-4.331.332.667-16.8,1.442-.884,2,.332Z" transform="translate(0 0)" fill="#f9a826"/>
    <path id="Path_193" data-name="Path 193" d="M102.858,31.007l-4.331.332.667-16.8,1.442-.884,2,.332Z" transform="translate(0 0)"/>
    <path id="Path_194" data-name="Path 194" d="M100.636,13.656l-6.884-1.327-2,17.352,6.774,1.657Z" transform="translate(0 0)" fill="#f9a826"/>
    <path id="Path_195" data-name="Path 195" d="M60.1,5.368h-1l-2,17.35,4.442-.22Z" transform="translate(0 0)" fill="#f9a826"/>
    <path id="Path_196" data-name="Path 196" d="M60.1,5.368h-1l-2,17.35,4.442-.22Z" transform="translate(0 0)"/>
    <path id="Path_197" data-name="Path 197" d="M59.77,5.146,58.549,22.608l10.66,1.1L70.43,6.693Z" transform="translate(0 0)" fill="#f9a826"/>
    <path id="Path_198" data-name="Path 198" d="M72.652,95.771s-1.332-.11-1.555,3.758a6.866,6.866,0,0,1-.333,3.094c-.556,1-.223,3.868,1.444,4.2a8.925,8.925,0,0,0,3.226,0s.777,0,.223-2.763l-1.111-8.068Z" transform="translate(0 -7.647)" fill="#5c3d53"/>
    <path id="Path_199" data-name="Path 199" d="M72.652,95.771s-1.332-.11-1.555,3.758a6.866,6.866,0,0,1-.333,3.094c-.556,1-.223,3.868,1.444,4.2a8.925,8.925,0,0,0,3.226,0s.777,0,.223-2.763l-1.111-8.068Z" transform="translate(0 -7.647)"/>
    <path id="Path_200" data-name="Path 200" d="M79.635,31.951a7.362,7.362,0,0,0,.235,2.6l-2.887.774s-4.775.664-2.887-1.223A5.046,5.046,0,0,0,75.21,31.16a16.217,16.217,0,0,0,.081-2.422,21.489,21.489,0,0,0-.2-2.263s7-2.431,5.442,1.547a14.1,14.1,0,0,0-.668,2.217,11.638,11.638,0,0,0-.23,1.712Z" transform="translate(0 -1.905)" fill="#f8bdc5"/>
    <path id="Path_201" data-name="Path 201" d="M80.537,28.024a14.1,14.1,0,0,0-.668,2.217,4.8,4.8,0,0,1-4.577-1.5,21.483,21.483,0,0,0-.2-2.263S82.091,24.045,80.537,28.024Z" transform="translate(0 -1.816)"/>
    <path id="Path_202" data-name="Path 202" d="M74.1,25.371a4.775,4.775,0,1,1,4.775,4.752A4.775,4.775,0,0,1,74.1,25.371Z" transform="translate(0 -1.521)" fill="#f8bdc5"/>
    <path id="Path_203" data-name="Path 203" d="M70.431,27.692v1.437l-2.443,6.3-.667-.663a1.121,1.121,0,0,1-.1-.125c-1.613-2.281-2.787-17.447-2.787-17.447L62.88,4.37S61.215.4,64.88.612s.777,3.647.777,3.647,2.443,12.157,2.109,12.6,0,1.769,0,1.769a12.939,12.939,0,0,1,.888,4.42C68.539,24.923,70.431,27.692,70.431,27.692Z" transform="translate(0 0)" fill="#f8bdc5"/>
    <path id="Path_204" data-name="Path 204" d="M97.971,10.894,92.2,23.05l-.892,1.65s-2.765,9.712-5.959,12.037a2.923,2.923,0,0,1-.593.341l-.667-5.3.615-1.541.046-.118a7.422,7.422,0,0,0,1.665-2.431c.667-1.547,2.555-4.642,2.555-4.642A5.441,5.441,0,0,0,89.3,21.5c0-.664,6.33-11.6,6.33-11.6s.555-4.974,3.226-2.543S97.971,10.894,97.971,10.894Z" transform="translate(0 0)" fill="#f8bdc5"/>
    <path id="Path_205" data-name="Path 205" d="M75.65,99.085s-3.776,1.547-3.332.11a11.431,11.431,0,0,0,.051-3.669c-.077-.751-.163-1.3-.163-1.3l3.226.332a2.592,2.592,0,0,0-.186.879,15.4,15.4,0,0,0,.4,3.648Z" transform="translate(0 -7.647)" fill="#f8bdc5"/>
    <path id="Path_206" data-name="Path 206" d="M81.521,94.786a22.3,22.3,0,0,0-.43,5.516s-3.443.442-3.11-.442a46.755,46.755,0,0,0,.756-5.423c.081-.778.132-1.318.132-1.318l3.11.664A3.083,3.083,0,0,0,81.521,94.786Z" transform="translate(0 -7.647)" fill="#f8bdc5"/>
    <path id="Path_207" data-name="Path 207" d="M72.207,94.223l3.226.332a2.587,2.587,0,0,0-.186.879,3.307,3.307,0,0,1-2.873.087C72.293,94.769,72.207,94.223,72.207,94.223Z" transform="translate(0 -7.647)"/>
    <path id="Path_208" data-name="Path 208" d="M81.981,93.781a3.085,3.085,0,0,0-.461,1,6,6,0,0,1-2.782-.349c.081-.778.132-1.318.132-1.318Z" transform="translate(0 -7.647)"/>
    <path id="Path_209" data-name="Path 209" d="M85.534,68.03,84.88,72.6a32.881,32.881,0,0,1-1.207,5.111,8.277,8.277,0,0,0-.137,3.364s.444,7.073-.333,8.842a11.539,11.539,0,0,0-.667,4.31C80.758,95.217,78.2,94,78.2,94l-.223-11.715a27.3,27.3,0,0,1-.333-5.963,72.4,72.4,0,0,0-.333-8.73c-1.229.332-1.111,16.467-1.111,16.467v10.5a3.59,3.59,0,0,1-5,0c-.888-2.653-.555-10.721-.555-10.721l-.333-4.752a138.921,138.921,0,0,1-2-14.036,38.8,38.8,0,0,1-.1-6.915q.032-.376.071-.723a19.2,19.2,0,0,1,.575-3.1,6.927,6.927,0,0,1,.338-.98l11.933.552.7.032,1.69.078c.184.277.358.558.519.839.234.408.444.819.632,1.223q.16.354.307.708A18.594,18.594,0,0,1,85.534,68.03Z" transform="translate(0 -5.763)" fill="#2f2e41"/>
    <path id="Path_210" data-name="Path 210" d="M72.429,54.437s-.522,5.2-4.2,3.694q.032-.376.071-.723c.867.234,3.265.557,3.355-2.972Z" transform="translate(0 -3.818)"/>
    <path id="Path_211" data-name="Path 211" d="M84.987,56.769c-2.55.907-3.512-1.507-3.841-2.885l.7.032a2.29,2.29,0,0,0,2.839,2.141Q84.846,56.419,84.987,56.769Z" transform="translate(0 -3.749)"/>
    <path id="Path_212" data-name="Path 212" d="M73.642,98.5c-.567-.089-1.433-.4-1.161-1.483,0,0-1.049-.361-.939,3.949a13.215,13.215,0,0,1-.333,2.543c-.223.443,0,3.094,2.332,2.873,0,0,1.665.552,2.109-.332,0,0-.333-5.084.223-5.963a1.572,1.572,0,0,0-.223-1.769,2.412,2.412,0,0,1-1.352.306,5.969,5.969,0,0,0-.656-.124Z" transform="translate(0 -7.647)" fill="#5c3d53"/>
    <path id="Path_213" data-name="Path 213" d="M76.427,105.716s-1.111,1.879,1.444,2.1a4.294,4.294,0,0,0,3.664-1.105,1.935,1.935,0,0,0,0-1.547,6.43,6.43,0,0,1,.111-2.763s.333-2.1-.444-1.657A61.56,61.56,0,0,0,76.427,105.716Z" transform="translate(0 -7.647)" fill="#5c3d53"/>
    <path id="Path_214" data-name="Path 214" d="M76.427,105.716s-1.111,1.879,1.444,2.1a4.294,4.294,0,0,0,3.664-1.105,1.935,1.935,0,0,0,0-1.547,6.43,6.43,0,0,1,.111-2.763s.333-2.1-.444-1.657A61.56,61.56,0,0,0,76.427,105.716Z" transform="translate(0 -7.647)"/>
    <path id="Path_215" data-name="Path 215" d="M79.315,98.975s-1.332-.552-1.665.552-.111,3.868-.777,4.642-1.555,2.873,1.111,2.763,3.226-1,3.226-1a14.37,14.37,0,0,1,.223-3.536,3.689,3.689,0,0,0,0-1.988S81.535,98.857,79.315,98.975Z" transform="translate(0 -7.647)" fill="#5c3d53"/>
    <path id="Path_216" data-name="Path 216" d="M62.434,6.694a.222.222,0,1,1,.065.157.223.223,0,0,1-.065-.157Z" transform="translate(0 0)"/>
    <path id="Path_217" data-name="Path 217" d="M67.1,7.245a.222.222,0,1,1,.065.157A.223.223,0,0,1,67.1,7.245Z" transform="translate(0 0)"/>
    <path id="Path_218" data-name="Path 218" d="M67.377,7.247h-.111c0-.047.078-4.709-2.612-5.139a1.419,1.419,0,0,0-1.287.355c-1.111,1.1-.651,4.192-.647,4.223l-.109.017c-.02-.13-.472-3.183.679-4.318A1.522,1.522,0,0,1,64.673,2C67.456,2.442,67.378,7.2,67.377,7.247Z" transform="translate(0 0)" fill="#535461"/>
    <path id="Path_219" data-name="Path 219" d="M98.8,13.459l-.1-.047c.017-.037,1.728-3.726-.533-5.012l.055-.1C100.57,9.64,98.817,13.421,98.8,13.459Z" transform="translate(0 0)" fill="#535461"/>
    <path id="Path_220" data-name="Path 220" d="M79.87,34.544l-2.887.774s-4.775.664-2.887-1.223a5.046,5.046,0,0,0,1.114-2.942c.754,1.177,1.662.843,1.662.843l2.753-.053h.011a7.325,7.325,0,0,0,.234,2.6Z" transform="translate(0 -2.191)"/>
    <path id="Path_221" data-name="Path 221" d="M85.35,36.745a2.919,2.919,0,0,1-.593.341L84.09,31.78l.614-1.541.154-.118C86.245,30.514,85.53,35.6,85.35,36.745Z" transform="translate(0 -2.172)"/>
    <path id="Path_222" data-name="Path 222" d="M70.431,27.692v1.437l-2.443,6.3-.667-.663a1.12,1.12,0,0,1-.1-.125C67.509,31.355,70.431,27.692,70.431,27.692Z" transform="translate(0 -2.012)"/>
    <path id="Path_223" data-name="Path 223" d="M84.053,54.833c-1.553.387-9.662,2.283-12.068.488a5.5,5.5,0,0,0-3.114-1.009,6.935,6.935,0,0,1,.338-.98l11.933.552.7.032,1.69.078Q83.812,54.411,84.053,54.833Z" transform="translate(0 -3.699)"/>
    <path id="Path_224" data-name="Path 224" d="M63.158,1.555s1.665,2.763,2.776,0" transform="translate(0 0)" fill="#f8bdc5"/>
    <path id="Path_225" data-name="Path 225" d="M97.416,7.245s-.667,3.316,2,1.769" transform="translate(0 0)" fill="#f8bdc5"/>
    <path id="Path_226" data-name="Path 226" d="M76.676,68.255c-.054-.669-.094-1.087-.094-1.087-1.231.33-1.113,16.369-1.113,16.369V93.974a3.892,3.892,0,0,1-2.209,1.014,3.7,3.7,0,0,0,2.771-1.014V83.537S75.945,71.915,76.676,68.255Z" transform="translate(0 -6.03)"/>
    <path id="Path_227" data-name="Path 227" d="M84.824,56.412c-.094-.234-.194-.47-.308-.7-.188-.407-.4-.816-.633-1.216-.154-.28-.336-.558-.52-.834l-1.693-.077-.7-.032L69.011,53,69,53.024l11.41.524.7.032,1.693.077c.185.275.359.555.52.834.234.406.445.815.633,1.216.108.234.209.47.308.7A18.355,18.355,0,0,1,84.812,67.6l-.656,4.538a32.461,32.461,0,0,1-1.21,5.081,8.166,8.166,0,0,0-.137,3.344s.445,7.031-.334,8.789a11.388,11.388,0,0,0-.668,4.285,3.263,3.263,0,0,1-1.395.38,3.579,3.579,0,0,0,1.95-.38,11.385,11.385,0,0,1,.668-4.285c.779-1.757.334-8.789.334-8.789A8.166,8.166,0,0,1,83.5,77.22a32.472,32.472,0,0,0,1.21-5.081l.656-4.538a18.358,18.358,0,0,0-.543-11.189Z" transform="translate(0 -5.631)"/>
    <path id="Path_228" data-name="Path 228" d="M79.626,32.169c1.536.72,5.131-2.046,5.131-2.046,1.555.442.444,6.853.444,6.853l-.06.266c-.338,1.512-.542,3.049-.731,4.587A4.552,4.552,0,0,1,83.2,44.05c-1.888,3.536,1.111,10.5,1.111,10.5s-9.662,2.543-12.326.552-6.663-.442-6.663-.442c1.888-1.657,2-11.936,2-11.936V34.772c.223-3.316,3.226-7.073,3.226-7.073a5.58,5.58,0,0,0,4.644,3.653c.757,1.223,1.69.879,1.69.879Z" transform="translate(0 -2.497)" fill="#eb6475"/>
    <path id="Path_229" data-name="Path 229" d="M77.628,18.674a2.738,2.738,0,0,0-1.157,0c-1.207.332-1.587,1.847-2.519,2.679-.335.306-.748.511-1.052.842a2.744,2.744,0,0,0-.535,2.255c.115.79.423,1.54.615,2.315a7.974,7.974,0,0,1,.214,2.373,1.391,1.391,0,0,1-.206.751c-.223.306-.633.4-.922.647-.882.755-.154,2.322-.8,3.287-.278.417-.8.693-.9,1.182a1.611,1.611,0,0,0,.241,1.017,7.359,7.359,0,0,0,1.536,2.332,7.216,7.216,0,0,0,2.417,1.261c.26.1.585.181.784-.011.244-.238.06-.642-.109-.937a1.985,1.985,0,0,1-.319-1.529c.157-.517.659-.859,1-1.29.871-1.116.585-2.718.154-4.064a3.144,3.144,0,0,1-.233-1.748c.066-.248.2-.472.28-.715.369-1.083-.251-2.271-.069-3.4a4.869,4.869,0,0,1,.461-1.264l.976-2.087a2.062,2.062,0,0,1,.432-.676,1.542,1.542,0,0,1,1.075-.333,2.925,2.925,0,0,1,2.094.949c1.045,1.156.979,2.9.853,4.446l-.091,1.113a4.059,4.059,0,0,1-.661,2.28c-.395.483-1.032.812-1.2,1.414-.141.518.124,1.081-.015,1.6-.209.775-1.171,1.055-1.679,1.682a1.713,1.713,0,0,0-.126,1.934c.194.306.5.611.461.971-.035.289-.3.523-.295.813a.648.648,0,0,0,.472.561,1.912,1.912,0,0,0,.779.037l2.755-.248a.974.974,0,0,0,.49-.135.857.857,0,0,0,.281-.625c.111-.975-.154-2.041.336-2.894.154-.274.38-.5.55-.764.94-1.468-.008-3.458.5-5.123a21.921,21.921,0,0,0,.959-2.281c.2-1.082-.367-2.14-.587-3.211-.226-1.1-.1-2.323-.7-3.284a3.4,3.4,0,0,0-2.1-1.4,16.305,16.305,0,0,0-2.3-.206C79.025,19.1,78.343,18.789,77.628,18.674Z" transform="translate(0 -1.549)"/>
    <path id="Path_230" data-name="Path 230" d="M77.628,18.452a2.738,2.738,0,0,0-1.157,0c-1.207.332-1.587,1.847-2.519,2.679-.335.306-.748.511-1.052.842a2.744,2.744,0,0,0-.535,2.255c.115.791.423,1.54.615,2.315a7.973,7.973,0,0,1,.214,2.373,1.391,1.391,0,0,1-.206.751c-.223.306-.633.4-.922.647-.882.755-.154,2.322-.8,3.287-.278.417-.8.693-.9,1.182A1.611,1.611,0,0,0,70.6,35.8a7.359,7.359,0,0,0,1.536,2.332,7.216,7.216,0,0,0,2.417,1.261c.26.1.585.181.784-.011.244-.238.06-.642-.109-.937a1.985,1.985,0,0,1-.319-1.529c.157-.517.659-.859,1-1.29.871-1.116.585-2.718.154-4.064a3.144,3.144,0,0,1-.233-1.748c.066-.248.2-.472.28-.715.369-1.082-.251-2.271-.069-3.4a4.868,4.868,0,0,1,.461-1.264l.976-2.087a2.06,2.06,0,0,1,.432-.676,1.541,1.541,0,0,1,1.075-.333,2.925,2.925,0,0,1,2.094.95c1.045,1.156.979,2.9.853,4.446l-.091,1.113a4.059,4.059,0,0,1-.661,2.28c-.395.483-1.032.812-1.2,1.414-.141.518.124,1.081-.015,1.6-.209.775-1.171,1.055-1.679,1.682a1.713,1.713,0,0,0-.126,1.934c.194.306.5.611.461.971-.035.289-.3.523-.3.813a.648.648,0,0,0,.472.561,1.914,1.914,0,0,0,.779.037l2.755-.248a.973.973,0,0,0,.49-.135.857.857,0,0,0,.281-.625c.111-.976-.154-2.041.336-2.894.154-.274.38-.5.55-.764.94-1.468-.008-3.458.5-5.123a21.908,21.908,0,0,0,.959-2.281c.2-1.082-.367-2.141-.587-3.211-.226-1.1-.1-2.323-.7-3.284a3.4,3.4,0,0,0-2.1-1.4,16.293,16.293,0,0,0-2.3-.207C79.025,18.884,78.343,18.569,77.628,18.452Z" transform="translate(0 -1.53)" fill="#774e55"/>
    <path id="Path_231" data-name="Path 231" d="M71.707,43.772A8.44,8.44,0,0,0,77.149,43h1.664s.111,1.547,4.441.884" transform="translate(0 -2.937)"/>
    <path id="Path_232" data-name="Path 232" d="M0,105.508c0-4.137,36.937-7.492,82.5-7.492s82.5,3.354,82.5,7.492S128.063,113,82.5,113,0,109.646,0,105.508Z" transform="translate(0 -7.647)" fill="#ccc"/>
    <path id="Path_233" data-name="Path 233" d="M41.008,44.045a2.293,2.293,0,0,1-2.293-2.293h0a2.293,2.293,0,0,1,2.293-2.293h7.7A2.293,2.293,0,0,1,51,41.752h0a2.293,2.293,0,0,1-2.293,2.293Z" transform="translate(0 -2.783)" fill="#f9a826"/>
    <path id="Path_234" data-name="Path 234" d="M46.539,49.091A2.293,2.293,0,0,1,44.246,46.8h0a2.293,2.293,0,0,1,2.293-2.3h7.7a2.293,2.293,0,0,1,2.3,2.3h0a2.293,2.293,0,0,1-2.293,2.293Z" transform="translate(0 -3.139)" fill="#f9a826"/>
    <path id="Path_235" data-name="Path 235" d="M94.933,44.351a2.293,2.293,0,0,1-2.293-2.293h0a2.293,2.293,0,0,1,2.293-2.293h7.7a2.293,2.293,0,0,1,2.293,2.293h0a2.293,2.293,0,0,1-2.293,2.293Z" transform="translate(0 -2.805)" fill="#f9a826"/>
    <path id="Path_236" data-name="Path 236" d="M100.464,49.4a2.293,2.293,0,0,1-2.294-2.3h0a2.293,2.293,0,0,1,2.294-2.293h7.7a2.294,2.294,0,0,1,2.294,2.293h0a2.294,2.294,0,0,1-2.294,2.293Z" transform="translate(0 -3.161)" fill="#f9a826"/>
    <path id="Path_237" data-name="Path 237" d="M37.168,54.136a2.293,2.293,0,0,1-2.293-2.293h0a2.293,2.293,0,0,1,2.293-2.293h7.7a2.293,2.293,0,0,1,2.293,2.293h0a2.293,2.293,0,0,1-2.293,2.293Z" transform="translate(0 -3.495)" fill="#f9a826"/>
    <path id="Path_238" data-name="Path 238" d="M49.458,72.025a2.293,2.293,0,0,1-2.293-2.293h0a2.293,2.293,0,0,1,2.293-2.293h7.7a2.293,2.293,0,0,1,2.293,2.293h0a2.293,2.293,0,0,1-2.293,2.293Z" transform="translate(0 -4.757)" fill="#f9a826"/>
    <path id="Path_239" data-name="Path 239" d="M54.989,77.07A2.293,2.293,0,0,1,52.7,74.777h0a2.293,2.293,0,0,1,2.293-2.293h7.7a2.293,2.293,0,0,1,2.293,2.293h0a2.293,2.293,0,0,1-2.293,2.293Z" transform="translate(0 -5.112)" fill="#f9a826"/>
    <path id="Path_240" data-name="Path 240" d="M45.617,82.116a2.293,2.293,0,0,1-2.293-2.293h0a2.293,2.293,0,0,1,2.293-2.293h7.7a2.293,2.293,0,0,1,2.293,2.293h0a2.293,2.293,0,0,1-2.293,2.293Z" transform="translate(0 -5.468)" fill="#f9a826"/>
    <path id="Path_241" data-name="Path 241" d="M98.927,84.868a2.293,2.293,0,0,1-2.293-2.293h0a2.293,2.293,0,0,1,2.293-2.293h7.7a2.294,2.294,0,0,1,2.294,2.293h0a2.294,2.294,0,0,1-2.294,2.293Z" transform="translate(0 -5.662)" fill="#f9a826"/>
    <path id="Path_242" data-name="Path 242" d="M89.556,89.913a2.293,2.293,0,0,1-2.293-2.293h0a2.293,2.293,0,0,1,2.293-2.293h7.7a2.293,2.293,0,0,1,2.293,2.293h0a2.293,2.293,0,0,1-2.293,2.293Z" transform="translate(0 -6.018)" fill="#f9a826"/>
    <path id="Path_243" data-name="Path 243" d="M145.157,102s-2.3-11.4,2.441-19.222A17.289,17.289,0,0,0,150.084,71.9a29.017,29.017,0,0,0-1.113-5.308" transform="translate(0 -7.647)" fill="none" stroke="#535461" stroke-width="2"/>
    <path id="Path_244" data-name="Path 244" d="M151.933,61.652c-.127,1.36-3.023,5.081-3.023,5.081s-2.151-4.173-2.022-5.535a2.519,2.519,0,0,1,2.749-2.188,2.493,2.493,0,0,1,2.294,2.64Z" transform="translate(0 -4.286)" fill="#f9a826"/>
    <path id="Path_245" data-name="Path 245" d="M155.393,69.566c-.864,1.074-5.361,2.662-5.361,2.662s.515-4.646,1.379-5.72a2.559,2.559,0,0,1,2.381-1.009,2.523,2.523,0,0,1,2.04,1.568,2.431,2.431,0,0,1-.444,2.5Z" transform="translate(0 -4.712)" fill="#f9a826"/>
    <path id="Path_246" data-name="Path 246" d="M154,82.428c-1.3.5-6-.348-6-.348s2.845-3.756,4.146-4.257a2.552,2.552,0,0,1,3.248,1.41A2.457,2.457,0,0,1,154,82.428Z" transform="translate(0 -5.495)" fill="#f9a826"/>
    <path id="Path_247" data-name="Path 247" d="M150.7,91.935c-1.2.709-5.978.648-5.978.648s2.155-4.171,3.351-4.88a2.583,2.583,0,0,1,2.555-.082,2.447,2.447,0,0,1,.072,4.313Z" transform="translate(0 -6.198)" fill="#f9a826"/>
    <path id="Path_248" data-name="Path 248" d="M144.712,72.011c.91,1.038,5.471,2.438,5.471,2.438s-.716-4.62-1.624-5.657a2.567,2.567,0,0,0-2.4-.852,2.516,2.516,0,0,0-1.939,1.623A2.432,2.432,0,0,0,144.712,72.011Z" transform="translate(0 -4.877)" fill="#f9a826"/>
    <path id="Path_249" data-name="Path 249" d="M141,83.177c1.186.725,5.968.726,5.968.726s-2.1-4.2-3.284-4.924a2.583,2.583,0,0,0-2.55-.11A2.448,2.448,0,0,0,141,83.177Z" transform="translate(0 -5.58)" fill="#f9a826"/>
    <path id="Path_250" data-name="Path 250" d="M138.911,94.509c1.044.91,5.756,1.7,5.756,1.7s-1.341-4.485-2.386-5.395a2.577,2.577,0,0,0-2.516-.568,2.5,2.5,0,0,0-1.718,1.883,2.445,2.445,0,0,0,.864,2.38Z" transform="translate(0 -7.647)" fill="#f9a826"/>
    <path id="Path_251" data-name="Path 251" d="M125.567,100S124.4,93.887,126.8,89.7a9.7,9.7,0,0,0,1.259-5.829,16.261,16.261,0,0,0-.561-2.845" transform="translate(0 -7.647)" fill="none" stroke="#535461" stroke-width="2"/>
    <path id="Path_252" data-name="Path 252" d="M129,78.372a10.575,10.575,0,0,1-1.53,2.724,10.733,10.733,0,0,1-1.025-2.966,1.293,1.293,0,0,1,1.386-1.124A1.313,1.313,0,0,1,129,78.372Z" transform="translate(0 -5.407)" fill="#f9a826"/>
    <path id="Path_253" data-name="Path 253" d="M130.749,82.613a10.046,10.046,0,0,1-2.716,1.426,10.848,10.848,0,0,1,.7-3.065,1.255,1.255,0,0,1,1.778-.193A1.358,1.358,0,0,1,130.749,82.613Z" transform="translate(0 -5.624)" fill="#f9a826"/>
    <path id="Path_254" data-name="Path 254" d="M130.044,89.51a9.84,9.84,0,0,1-3.04-.186s1.44-2.018,2.1-2.281a1.27,1.27,0,0,1,1.626.762,1.343,1.343,0,0,1-.686,1.705Z" transform="translate(0 -6.023)" fill="#f9a826"/>
    <path id="Path_255" data-name="Path 255" d="M128.374,94.6a9.819,9.819,0,0,1-3.027.348,10.549,10.549,0,0,1,1.7-2.617,1.247,1.247,0,0,1,1.3-.05,1.35,1.35,0,0,1,.03,2.319Z" transform="translate(0 -7.647)" fill="#f9a826"/>
    <path id="Path_256" data-name="Path 256" d="M125.34,83.926a9.98,9.98,0,0,0,2.771,1.307,10.721,10.721,0,0,0-.822-3.033,1.255,1.255,0,0,0-1.81-.146,1.361,1.361,0,0,0-.141,1.872Z" transform="translate(0 -5.708)" fill="#f9a826"/>
    <path id="Path_257" data-name="Path 257" d="M123.46,89.909a9.852,9.852,0,0,0,3.022.389,10.58,10.58,0,0,0-1.663-2.638,1.258,1.258,0,0,0-1.75.433,1.355,1.355,0,0,0,.391,1.817Z" transform="translate(0 -6.071)" fill="#f9a826"/>
    <path id="Path_258" data-name="Path 258" d="M122.4,95.983a9.923,9.923,0,0,0,2.915.913,10.852,10.852,0,0,0-1.2-2.9,1.254,1.254,0,0,0-1.8.122,1.359,1.359,0,0,0,.088,1.858Z" transform="translate(0 -7.647)" fill="#f9a826"/>
    <path id="Path_259" data-name="Path 259" d="M28.963,100s-1.3-5.847,1.372-9.856a8.24,8.24,0,0,0,1.4-5.576,13.74,13.74,0,0,0-.624-2.721" transform="translate(0 -7.647)" fill="none" stroke="#535461" stroke-width="2"/>
    <path id="Path_260" data-name="Path 260" d="M32.776,79.312a9.878,9.878,0,0,1-1.7,2.6s-1.21-2.139-1.139-2.837a1.4,1.4,0,0,1,1.54-1.075,1.33,1.33,0,0,1,1.294,1.307Z" transform="translate(0 -5.468)" fill="#f9a826"/>
    <path id="Path_261" data-name="Path 261" d="M34.721,83.369A11.911,11.911,0,0,1,31.7,84.733a9.164,9.164,0,0,1,.78-2.933,1.55,1.55,0,0,1,1.975-.184,1.178,1.178,0,0,1,.266,1.753Z" transform="translate(0 -5.675)" fill="#f9a826"/>
    <path id="Path_262" data-name="Path 262" d="M33.938,89.966a12.659,12.659,0,0,1-3.378-.178,10.512,10.512,0,0,1,2.334-2.182,1.484,1.484,0,0,1,1.807.729,1.224,1.224,0,0,1-.762,1.631Z" transform="translate(0 -6.056)" fill="#f9a826"/>
    <path id="Path_263" data-name="Path 263" d="M32.082,94.835a12.59,12.59,0,0,1-3.363.333,10.035,10.035,0,0,1,1.886-2.5,1.577,1.577,0,0,1,1.444-.048,1.206,1.206,0,0,1,.033,2.218Z" transform="translate(0 -7.647)" fill="#f9a826"/>
    <path id="Path_264" data-name="Path 264" d="M28.711,84.625a12,12,0,0,0,3.079,1.25,9.156,9.156,0,0,0-.914-2.9,1.55,1.55,0,0,0-2.011-.139,1.176,1.176,0,0,0-.157,1.79Z" transform="translate(0 -5.755)" fill="#f9a826"/>
    <path id="Path_265" data-name="Path 265" d="M26.622,90.348a12.627,12.627,0,0,0,3.358.373A10,10,0,0,0,28.132,88.2a1.531,1.531,0,0,0-1.944.415,1.189,1.189,0,0,0,.434,1.738Z" transform="translate(0 -6.102)" fill="#f9a826"/>
    <path id="Path_266" data-name="Path 266" d="M25.45,96.158a12.374,12.374,0,0,0,3.239.873,9.615,9.615,0,0,0-1.334-2.766,1.551,1.551,0,0,0-1.994.117,1.173,1.173,0,0,0,.1,1.777Z" transform="translate(0 -7.647)" fill="#f9a826"/>
  </g>
</svg>
